<svg width="50" height="50" viewBox="0 0 50 50" fill="none" xmlns="http://www.w3.org/2000/svg">
<g clip-path="url(#clip0_571_2376)">
<path fill-rule="evenodd" clip-rule="evenodd" d="M27.4319 37.6797C27.478 38.6822 26.705 39.5334 25.7028 39.5839H22.2174C21.2151 39.5334 20.4422 38.6822 20.4882 37.6797V33.9818C15.5741 32.1786 12.7858 26.9844 13.9983 21.8923C15.2108 16.8002 20.0408 13.4201 25.2402 14.025C30.4397 14.6299 34.3646 19.0286 34.3757 24.2631C34.3619 28.6492 31.5768 32.5473 27.4319 33.9818V37.6797Z" stroke="white" stroke-width="2" stroke-linecap="round" stroke-linejoin="round"/>
<path d="M27.4312 34.9811C27.9835 34.9811 28.4312 34.5334 28.4312 33.9811C28.4312 33.4288 27.9835 32.9811 27.4312 32.9811V34.9811ZM20.4854 32.9811C19.9331 32.9811 19.4854 33.4288 19.4854 33.9811C19.4854 34.5334 19.9331 34.9811 20.4854 34.9811V32.9811ZM43.7507 25.2624C44.3029 25.2624 44.7507 24.8147 44.7507 24.2624C44.7507 23.7101 44.3029 23.2624 43.7507 23.2624V25.2624ZM39.584 23.2624C39.0317 23.2624 38.584 23.7101 38.584 24.2624C38.584 24.8147 39.0317 25.2624 39.584 25.2624V23.2624ZM8.33366 25.2624C8.88594 25.2624 9.33366 24.8147 9.33366 24.2624C9.33366 23.7101 8.88594 23.2624 8.33366 23.2624V25.2624ZM4.16699 23.2624C3.61471 23.2624 3.16699 23.7101 3.16699 24.2624C3.16699 24.8147 3.61471 25.2624 4.16699 25.2624V23.2624ZM38.6567 11.1286C39.0498 10.7406 39.0538 10.1074 38.6658 9.71442C38.2778 9.32141 37.6446 9.31736 37.2516 9.70538L38.6567 11.1286ZM34.2974 12.622C33.9044 13.0101 33.9004 13.6432 34.2884 14.0362C34.6764 14.4292 35.3096 14.4333 35.7026 14.0453L34.2974 12.622ZM13.6201 35.905C14.0126 35.5164 14.0157 34.8832 13.6272 34.4908C13.2386 34.0983 12.6054 34.0951 12.213 34.4837L13.6201 35.905ZM9.26712 37.4004C8.87466 37.789 8.87151 38.4221 9.26009 38.8146C9.64866 39.207 10.2818 39.2102 10.6743 38.8216L9.26712 37.4004ZM37.2569 38.8216C37.6494 39.2102 38.2825 39.207 38.6711 38.8146C39.0597 38.4221 39.0565 37.789 38.6641 37.4004L37.2569 38.8216ZM35.7182 34.4837C35.3258 34.0951 34.6926 34.0983 34.304 34.4908C33.9155 34.8832 33.9186 35.5164 34.3111 35.905L35.7182 34.4837ZM12.2144 14.0453C12.6074 14.4333 13.2406 14.4292 13.6286 14.0362C14.0166 13.6432 14.0126 13.0101 13.6196 12.6221L12.2144 14.0453ZM10.6654 9.70538C10.2724 9.31736 9.63924 9.32141 9.25122 9.71442C8.86319 10.1074 8.86724 10.7406 9.26025 11.1286L10.6654 9.70538ZM27.4312 32.9811H20.4854V34.9811H27.4312V32.9811ZM43.7507 23.2624H39.584V25.2624H43.7507V23.2624ZM8.33366 23.2624H4.16699V25.2624H8.33366V23.2624ZM37.2516 9.70538L34.2974 12.622L35.7026 14.0453L38.6567 11.1286L37.2516 9.70538ZM12.213 34.4837L9.26712 37.4004L10.6743 38.8216L13.6201 35.905L12.213 34.4837ZM38.6641 37.4004L35.7182 34.4837L34.3111 35.905L37.2569 38.8216L38.6641 37.4004ZM13.6196 12.6221L10.6654 9.70538L9.26025 11.1286L12.2144 14.0453L13.6196 12.6221Z" fill="white"/>
</g>
<defs>
<clipPath id="clip0_571_2376">
<rect width="50" height="50" fill="white"/>
</clipPath>
</defs>
</svg>
