<svg width="50" height="50" viewBox="0 0 50 50" fill="none" xmlns="http://www.w3.org/2000/svg">
<g clip-path="url(#clip0_571_2370)">
<path d="M9.9025 17.8928C9.42892 18.177 9.27535 18.7912 9.5595 19.2648C9.84365 19.7384 10.4579 19.892 10.9315 19.6078L9.9025 17.8928ZM20.8337 12.5003L21.4337 11.7003C21.1084 11.4564 20.6678 11.4336 20.3192 11.6428L20.8337 12.5003ZM29.167 18.7503L28.567 19.5503C28.9318 19.824 29.4356 19.8161 29.7917 19.5312L29.167 18.7503ZM40.2084 11.1979C40.6396 10.8529 40.7095 10.2236 40.3645 9.7923C40.0195 9.36104 39.3902 9.29111 38.959 9.63612L40.2084 11.1979ZM36.5007 39.5837C36.5007 40.1359 36.9484 40.5837 37.5007 40.5837C38.0529 40.5837 38.5007 40.1359 38.5007 39.5837H36.5007ZM38.5007 22.917C38.5007 22.3647 38.0529 21.917 37.5007 21.917C36.9484 21.917 36.5007 22.3647 36.5007 22.917H38.5007ZM19.8337 39.5837C19.8337 40.1359 20.2814 40.5837 20.8337 40.5837C21.3859 40.5837 21.8337 40.1359 21.8337 39.5837H19.8337ZM21.8337 22.917C21.8337 22.3647 21.3859 21.917 20.8337 21.917C20.2814 21.917 19.8337 22.3647 19.8337 22.917H21.8337ZM28.1667 39.5837C28.1667 40.1359 28.6144 40.5837 29.1667 40.5837C29.719 40.5837 30.1667 40.1359 30.1667 39.5837H28.1667ZM30.1667 29.167C30.1667 28.6147 29.719 28.167 29.1667 28.167C28.6144 28.167 28.1667 28.6147 28.1667 29.167H30.1667ZM11.5007 39.5837C11.5007 40.1359 11.9484 40.5837 12.5007 40.5837C13.0529 40.5837 13.5007 40.1359 13.5007 39.5837H11.5007ZM13.5007 29.167C13.5007 28.6147 13.0529 28.167 12.5007 28.167C11.9484 28.167 11.5007 28.6147 11.5007 29.167H13.5007ZM10.9315 19.6078L21.3482 13.3578L20.3192 11.6428L9.9025 17.8928L10.9315 19.6078ZM20.2337 13.3003L28.567 19.5503L29.767 17.9503L21.4337 11.7003L20.2337 13.3003ZM29.7917 19.5312L40.2084 11.1979L38.959 9.63612L28.5423 17.9695L29.7917 19.5312ZM38.5007 39.5837V22.917H36.5007V39.5837H38.5007ZM21.8337 39.5837V22.917H19.8337V39.5837H21.8337ZM30.1667 39.5837V29.167H28.1667V39.5837H30.1667ZM13.5007 39.5837V29.167H11.5007V39.5837H13.5007Z" fill="white"/>
</g>
<defs>
<clipPath id="clip0_571_2370">
<rect width="50" height="50" fill="white"/>
</clipPath>
</defs>
</svg>
