<svg width="50" height="50" viewBox="0 0 50 50" fill="none" xmlns="http://www.w3.org/2000/svg">
<g clip-path="url(#clip0_571_2391)">
<path fill-rule="evenodd" clip-rule="evenodd" d="M10.417 25.0007C10.4175 18.0434 15.3325 12.0553 22.1562 10.6985C28.9799 9.34161 35.8119 12.9939 38.4739 19.4218C41.136 25.8497 38.8867 33.2629 33.1017 37.1278C27.3167 40.9928 19.6071 40.233 14.6878 35.3132C11.953 32.5781 10.4167 28.8686 10.417 25.0007Z" stroke="white" stroke-width="2" stroke-linecap="round" stroke-linejoin="round"/>
<path d="M36.0196 15.3956C36.4101 15.0051 36.4101 14.3719 36.0196 13.9814C35.6291 13.5908 34.9959 13.5908 34.6054 13.9814L36.0196 15.3956ZM24.2929 24.2939C23.9024 24.6844 23.9024 25.3176 24.2929 25.7081C24.6834 26.0986 25.3166 26.0986 25.7071 25.7081L24.2929 24.2939ZM13.9804 34.6064C13.5899 34.9969 13.5899 35.6301 13.9804 36.0206C14.3709 36.4111 15.0041 36.4111 15.3946 36.0206L13.9804 34.6064ZM25.7071 25.7081C26.0976 25.3176 26.0976 24.6844 25.7071 24.2939C25.3166 23.9033 24.6834 23.9033 24.2929 24.2939L25.7071 25.7081ZM25.9997 10.418C25.9997 9.86568 25.552 9.41797 24.9997 9.41797C24.4474 9.41797 23.9997 9.86568 23.9997 10.418H25.9997ZM23.9997 25.0013C23.9997 25.5536 24.4474 26.0013 24.9997 26.0013C25.552 26.0013 25.9997 25.5536 25.9997 25.0013H23.9997ZM25 24.0016C24.4477 24.0016 24 24.4493 24 25.0016C24 25.5539 24.4477 26.0016 25 26.0016V24.0016ZM39.5833 26.0016C40.1356 26.0016 40.5833 25.5539 40.5833 25.0016C40.5833 24.4493 40.1356 24.0016 39.5833 24.0016V26.0016ZM34.6054 13.9814L24.2929 24.2939L25.7071 25.7081L36.0196 15.3956L34.6054 13.9814ZM15.3946 36.0206L25.7071 25.7081L24.2929 24.2939L13.9804 34.6064L15.3946 36.0206ZM23.9997 10.418V25.0013H25.9997V10.418H23.9997ZM25 26.0016H39.5833V24.0016H25V26.0016Z" fill="white"/>
</g>
<defs>
<clipPath id="clip0_571_2391">
<rect width="50" height="50" fill="white"/>
</clipPath>
</defs>
</svg>
